<?xml version="1.0" encoding="UTF-8"?>
<svg width="240px" height="270px" viewBox="0 0 240 270" version="1.1" xmlns="http://www.w3.org/2000/svg" xmlns:xlink="http://www.w3.org/1999/xlink">
    <!-- Generator: Sketch 48.2 (47327) - http://www.bohemiancoding.com/sketch -->
    <title>avataaars (1)</title>
    <desc>Created with Sketch.</desc>
    <defs>
        <circle id="path-1" cx="120" cy="120" r="120"></circle>
        <path d="M12,160 C12,226.27417 65.72583,280 132,280 C198.27417,280 252,226.27417 252,160 L264,160 L264,-1.42108547e-14 L-3.19744231e-14,-1.42108547e-14 L-3.19744231e-14,160 L12,160 Z" id="path-3"></path>
        <path d="M124,144.610951 L124,163 L128,163 C167.764502,163 200,195.235498 200,235 L200,244 L0,244 L0,235 C-4.86974701e-15,195.235498 32.235498,163 72,163 L76,163 L76,144.610951 C58.7626345,136.422372 46.3722246,119.687011 44.3051388,99.8812385 C38.4803105,99.0577866 34,94.0521096 34,88 L34,74 C34,68.0540074 38.3245733,63.1180731 44,62.1659169 L44,56 C44,25.072054 69.072054,5.68137151e-15 100,0 C130.927946,-5.68137151e-15 156,25.072054 156,56 L156,62.1659169 C161.675427,63.1180731 166,68.0540074 166,74 L166,88 C166,94.0521096 161.51969,99.0577866 155.694861,99.8812385 C153.627775,119.687011 141.237365,136.422372 124,144.610951 Z" id="path-5"></path>
        <path d="M124,144.610951 L124,163 L128,163 C167.764502,163 200,195.235498 200,235 L200,244 L0,244 L0,235 C-4.86974701e-15,195.235498 32.235498,163 72,163 L76,163 L76,144.610951 C58.7626345,136.422372 46.3722246,119.687011 44.3051388,99.8812385 C38.4803105,99.0577866 34,94.0521096 34,88 L34,74 C34,68.0540074 38.3245733,63.1180731 44,62.1659169 L44,56 C44,25.072054 69.072054,5.68137151e-15 100,0 C130.927946,-5.68137151e-15 156,25.072054 156,56 L156,62.1659169 C161.675427,63.1180731 166,68.0540074 166,74 L166,88 C166,94.0521096 161.51969,99.0577866 155.694861,99.8812385 C153.627775,119.687011 141.237365,136.422372 124,144.610951 Z" id="path-7"></path>
        <path d="M76,0.0708856 C58.0813006,2.075938 44.2798424,7.5518341 44.004203,21.6449676 C18.1464329,32.5680933 0,58.1646257 0,87.999485 L0,97 L200,97 L200,87.999485 C200,58.1646257 181.853567,32.5680933 155.995797,21.6449832 C155.720158,7.5518341 141.918699,2.075938 124,0.0708856 L124,19 C124,32.254834 113.254834,43 100,43 C86.745166,43 76,32.254834 76,19 L76,0.0708856 Z" id="path-9"></path>
        <path d="M76,0.0708856 C58.0813006,2.075938 44.2798424,7.5518341 44.004203,21.6449676 C18.1464329,32.5680933 0,58.1646257 0,87.999485 L0,97 L200,97 L200,87.999485 C200,58.1646257 181.853567,32.5680933 155.995797,21.6449832 C155.720158,7.5518341 141.918699,2.075938 124,0.0708856 L124,19 C124,32.254834 113.254834,43 100,43 C86.745166,43 76,32.254834 76,19 L76,0.0708856 Z" id="path-11"></path>
        <path d="M76,0.0708856 C58.0813006,2.075938 44.2798424,7.5518341 44.004203,21.6449676 C18.1464329,32.5680933 0,58.1646257 0,87.999485 L0,97 L200,97 L200,87.999485 C200,58.1646257 181.853567,32.5680933 155.995797,21.6449832 C155.720158,7.5518341 141.918699,2.075938 124,0.0708856 L124,19 C124,32.254834 113.254834,43 100,43 C86.745166,43 76,32.254834 76,19 L76,0.0708856 Z" id="path-13"></path>
        <path d="M0.117844,2.1280772 C1.1757121,11.6198025 9.2259873,19 19,19 C28.8042055,19 36.8740075,11.574136 37.8917593,2.0400546 C37.9736685,1.272746 37.1167429,0 36.042767,0 C21.1487536,0 9.7379213,0 2.0868244,0 C1.0066168,0 0.0120058,1.1784435 0.117844,2.1280772 Z" id="path-15"></path>
        <path d="M0.117844,2.1280772 C1.1757121,11.6198025 9.2259873,19 19,19 C28.8042055,19 36.8740075,11.574136 37.8917593,2.0400546 C37.9736685,1.272746 37.1167429,0 36.042767,0 C21.1487536,0 9.7379213,0 2.0868244,0 C1.0066168,0 0.0120058,1.1784435 0.117844,2.1280772 Z" id="path-17"></path>
        <rect id="path-19" x="0" y="0" width="264" height="280"></rect>
        <path d="M112.679824,28.9488198 C118.086072,23.9985622 119.387393,13.9615454 116.317704,7.44932459 C112.549263,-0.546146879 104.901319,-1.54782263 97.572342,1.9686703 C90.664469,5.28356609 84.515175,6.38786709 76.950196,4.78173189 C69.691624,3.2406923 62.805566,0.522617199 55.303388,0.0762470999 C42.978028,-0.657075169 31.003367,3.91456499 22.6031232,13.1292512 C21.0003538,14.8871655 19.7089493,16.8971594 18.4882796,18.9343872 C17.5115454,20.5644351 16.4105298,22.3133822 15.9950459,24.1921885 C15.7973853,25.0855929 16.165272,27.2898774 15.7203704,28.0218712 C15.2391099,28.8123183 13.4244668,29.5373375 12.6510124,30.1238625 C11.0842713,31.3125222 9.7267597,32.6539573 8.4713836,34.1710842 C5.8052796,37.3926541 4.3376994,40.7577 3.1034777,44.7428151 C-0.9994667,57.9877848 -1.3471906,73.7412615 3.9569218,86.7467723 C4.6639385,88.4811061 6.8550622,92.0985639 8.1431613,88.3847911 C8.3976741,87.6508046 7.8086588,85.1907872 7.8099809,84.4501583 C7.8146084,81.7300905 9.3160587,63.7213567 15.857084,53.6330195 C17.9862338,50.3491947 27.8298903,38.0522456 29.840541,37.9536058 C30.9058,39.6464244 41.720532,50.4624528 69.783385,49.1948918 C82.445253,48.6229724 92.18265,42.934118 94.520833,40.4680908 C95.549375,46.000888 107.51323,54.2839964 109.33625,57.6921975 C114.602529,67.5376947 115.770677,87.9957203 117.780988,87.9573367 C119.791299,87.9189531 121.234429,82.7197797 121.647929,81.7270712 C124.719601,74.3516689 125.242509,65.0948337 124.914948,57.1684433 C124.487565,46.9663625 120.276535,35.9419513 112.679824,28.9488198 Z" id="path-21"></path>
    </defs>
    <g id="Page-1" stroke="none" stroke-width="1" fill="none" fill-rule="evenodd">
        <g id="avataaars-(1)" transform="translate(-12.000000, -10.000000)">
            <g id="Circle" transform="translate(12.000000, 40.000000)">
                <g id="Circle-Background" fill="#E6E6E6" fill-rule="nonzero">
                    <circle id="path-1" cx="120" cy="120" r="120"></circle>
                </g>
                <g id="Color/Palette/Blue-01-Clipped">
                    <mask id="mask-2" fill="white">
                        <use xlink:href="#path-1"></use>
                    </mask>
                    <g id="path-1"></g>
                    <g id="Color/Palette/Blue-01" mask="url(#mask-2)" fill="#EE5253" fill-rule="nonzero">
                        <rect id="ðŸ–Color" x="0" y="0" width="240" height="240"></rect>
                    </g>
                </g>
            </g>
            <g id="Avataaar-Clipped">
                <mask id="mask-4" fill="white">
                    <use xlink:href="#path-3"></use>
                </mask>
                <g id="path-3"></g>
                <g id="Avataaar" mask="url(#mask-4)">
                    <g id="Body" transform="translate(32.000000, 36.000000)">
                        <g id="path-5-link" fill="#D0C6AC" fill-rule="nonzero">
                            <path d="M124,144.610951 L124,163 L128,163 C167.764502,163 200,195.235498 200,235 L200,244 L0,244 L0,235 C-4.86974701e-15,195.235498 32.235498,163 72,163 L76,163 L76,144.610951 C58.7626345,136.422372 46.3722246,119.687011 44.3051388,99.8812385 C38.4803105,99.0577866 34,94.0521096 34,88 L34,74 C34,68.0540074 38.3245733,63.1180731 44,62.1659169 L44,56 C44,25.072054 69.072054,5.68137151e-15 100,0 C130.927946,-5.68137151e-15 156,25.072054 156,56 L156,62.1659169 C161.675427,63.1180731 166,68.0540074 166,74 L166,88 C166,94.0521096 161.51969,99.0577866 155.694861,99.8812385 C153.627775,119.687011 141.237365,136.422372 124,144.610951 Z" id="path-5"></path>
                        </g>
                        <g id="Skin/ðŸ‘¶ðŸ½-03-Brown-Clipped">
                            <mask id="mask-6" fill="white">
                                <use xlink:href="#path-5"></use>
                            </mask>
                            <g id="path-5"></g>
                            <g id="Skin/ðŸ‘¶ðŸ½-03-Brown" mask="url(#mask-6)">
                                <g transform="translate(-32.000000, 0.000000)" id="Color">
                                    <g>
                                        <rect id="Rectangle-path" fill="#F8D25C" fill-rule="nonzero" x="0" y="0" width="264" height="244"></rect>
                                    </g>
                                </g>
                            </g>
                        </g>
                        <g id="Neck-Shadow-Clipped">
                            <mask id="mask-8" fill="white">
                                <use xlink:href="#path-7"></use>
                            </mask>
                            <g id="path-5"></g>
                            <path d="M156,79 L156,102 C156,132.927946 130.927946,158 100,158 C69.072054,158 44,132.927946 44,102 L44,79 L44,94 C44,124.927946 69.072054,150 100,150 C130.927946,150 156,124.927946 156,94 L156,79 Z" id="Neck-Shadow" fill-opacity="0.100000001" fill="#000000" fill-rule="nonzero" mask="url(#mask-8)"></path>
                        </g>
                    </g>
                    <g id="Clothing/Hoodie" transform="translate(32.000000, 183.000000)">
                        <g id="Hoodie" fill="#B7C1DB">
                            <path d="M76,0.0708856 C58.0813006,2.075938 44.2798424,7.5518341 44.004203,21.6449676 C18.1464329,32.5680933 0,58.1646257 0,87.999485 L0,97 L200,97 L200,87.999485 C200,58.1646257 181.853567,32.5680933 155.995797,21.6449832 C155.720158,7.5518341 141.918699,2.075938 124,0.0708856 L124,19 C124,32.254834 113.254834,43 100,43 C86.745166,43 76,32.254834 76,19 L76,0.0708856 Z" id="react-path-162"></path>
                        </g>
                        <g id="Color/Palette/Gray-01-Clipped">
                            <mask id="mask-10" fill="white">
                                <use xlink:href="#path-9"></use>
                            </mask>
                            <g id="react-path-162"></g>
                            <g id="Color/Palette/Gray-01" mask="url(#mask-10)" fill="#262E33">
                                <g transform="translate(-32.000000, -13.000000)" id="ðŸ–Color">
                                    <rect x="0" y="0" width="264" height="110"></rect>
                                </g>
                            </g>
                        </g>
                        <g id="Straps-Clipped">
                            <mask id="mask-12" fill="white">
                                <use xlink:href="#path-11"></use>
                            </mask>
                            <g id="react-path-162"></g>
                            <path d="M70,48.7390531 L70,97 L63,97 L63,45.1502625 C65.2037542,46.4600576 67.5467694,47.6607878 70,48.7390531 Z M137,45.1502625 L137,85.5 C137,87.432997 135.432997,89 133.5,89 C131.567003,89 130,87.432997 130,85.5 L130,48.7390531 C132.453231,47.6607878 134.796246,46.4600576 137,45.1502625 Z" id="Straps" fill="#F4F4F4" mask="url(#mask-12)"></path>
                        </g>
                        <g id="Shadow-Clipped">
                            <mask id="mask-14" fill="white">
                                <use xlink:href="#path-13"></use>
                            </mask>
                            <g id="react-path-162"></g>
                            <path d="M58.9601329,-0.2756463 C43.9093095,2.5711782 33.5,8.2428847 33.5,19.3076923 C33.5,39.0200095 66.5376807,55 100,55 C133.462319,55 166.5,39.0200095 166.5,19.3076923 C166.5,8.2428847 156.09069,2.5711782 141.039867,-0.2756463 C150.124921,3.0744598 156,8.7060546 156,18.0769231 C156,38.4689754 128.178795,55 100,55 C71.821205,55 44,38.4689754 44,18.0769231 C44,8.7060546 49.8750795,3.0744598 58.9601329,-0.2756463 Z" id="Shadow" fill-opacity="0.16" fill="#000000" mask="url(#mask-14)"></path>
                        </g>
                    </g>
                    <g id="Face" transform="translate(88.000000, 88.000000)">
                        <g id="Mouth/Smile" transform="translate(25.000000, 59.000000)">
                            <g id="Mouth" fill="#000000" fill-opacity="0.699999988">
                                <path d="M0.117844,2.1280772 C1.1757121,11.6198025 9.2259873,19 19,19 C28.8042055,19 36.8740075,11.574136 37.8917593,2.0400546 C37.9736685,1.272746 37.1167429,0 36.042767,0 C21.1487536,0 9.7379213,0 2.0868244,0 C1.0066168,0 0.0120058,1.1784435 0.117844,2.1280772 Z" id="react-path-226"></path>
                            </g>
                            <g id="Teeth-Clipped">
                                <mask id="mask-16" fill="white">
                                    <use xlink:href="#path-15"></use>
                                </mask>
                                <g id="react-path-226"></g>
                                <rect id="Teeth" fill="#FFFFFF" mask="url(#mask-16)" x="4" y="-11" width="31" height="16" rx="5"></rect>
                            </g>
                            <g id="Tongue-Clipped">
                                <mask id="mask-18" fill="white">
                                    <use xlink:href="#path-17"></use>
                                </mask>
                                <g id="react-path-226"></g>
                                <g id="Tongue" mask="url(#mask-18)">
                                    <g transform="translate(3.000000, 11.000000)" id="Group">
                                        <g>
                                            <circle id="Oval" fill="#FF4F6D" cx="11" cy="11" r="11"></circle>
                                            <circle id="Oval" fill="#FF4F6D" cx="21" cy="11" r="11"></circle>
                                        </g>
                                    </g>
                                </g>
                            </g>
                        </g>
                        <g id="Nose/Default" transform="translate(32.000000, 42.000000)" fill="#000000" fill-opacity="0.16" fill-rule="nonzero">
                            <path d="M0,0 C0,4.418278 5.372583,8 12,8 C18.627417,8 24,4.418278 24,0" id="Nose"></path>
                        </g>
                        <g id="Eyes/Happy-ðŸ˜" transform="translate(4.000000, 18.000000)" fill="#000000" fill-opacity="0.599999964" fill-rule="nonzero">
                            <path d="M0.1601674,6.4473116 C2.006676,2.648508 6.1644225,0 10.9975803,0 C15.8136766,0 19.9591217,2.629842 21.8153518,6.4071242 C22.3667605,7.5291977 21.5821037,8.4474817 20.790607,7.7670228 C18.3395063,5.6597833 14.8587163,4.3437884 10.9975803,4.3437884 C7.2572061,4.3437884 3.8737584,5.5787519 1.4375392,7.5716412 C0.5467928,8.3002944 -0.3798988,7.5583844 0.1601674,6.4473116 Z" id="Squint"></path>
                            <path d="M58.1601674,6.4473116 C60.006676,2.648508 64.1644225,0 68.9975803,0 C73.8136766,0 77.9591217,2.629842 79.8153518,6.4071242 C80.3667605,7.5291977 79.5821037,8.4474817 78.790607,7.7670228 C76.3395063,5.6597833 72.8587163,4.3437884 68.9975803,4.3437884 C65.2572061,4.3437884 61.8737584,5.5787519 59.4375392,7.5716412 C58.5467928,8.3002944 57.6201012,7.5583844 58.1601674,6.4473116 Z" id="Squint"></path>
                        </g>
                        <g id="Eyebrow/Outline/Default" fill="#000000" fill-opacity="0.599999964" fill-rule="nonzero">
                            <g id="I-Browse">
                                <path d="M3.63024536,11.1585767 C7.54515501,5.64986673 18.2779197,2.56083721 27.5230268,4.83118046 C28.5957248,5.0946055 29.6788665,4.43856013 29.9422916,3.36586212 C30.2057166,2.2931641 29.5496712,1.21002236 28.4769732,0.94659732 C17.7403633,-1.69001789 5.31209962,1.88699832 0.369754639,8.84142326 C-0.270109626,9.74178291 -0.0589363917,10.9903811 0.84142326,11.6302454 C1.74178291,12.2701096 2.9903811,12.0589364 3.63024536,11.1585767 Z" id="Eyebrow"></path>
                                <path d="M61.6302461,11.1585767 C65.5451557,5.64986673 76.2779204,2.56083721 85.5230275,4.83118046 C86.5957255,5.0946055 87.6788672,4.43856013 87.9422923,3.36586212 C88.2057173,2.2931641 87.5496719,1.21002236 86.4769739,0.94659732 C75.740364,-1.69001789 63.3121003,1.88699832 58.3697553,8.84142326 C57.7298911,9.74178291 57.9410643,10.9903811 58.841424,11.6302454 C59.7417836,12.2701096 60.9903818,12.0589364 61.6302461,11.1585767 Z" id="Eyebrow" transform="translate(73.000154, 6.039198) scale(-1, 1) translate(-73.000154, -6.039198) "></path>
                            </g>
                        </g>
                    </g>
                    <g id="Top">
                        <g id="Top/Short-Hair/Short-Waved-Clipped">
                            <mask id="mask-20" fill="white">
                                <use xlink:href="#path-19"></use>
                            </mask>
                            <g id="react-path-224"></g>
                            <g id="Top/Short-Hair/Short-Waved" mask="url(#mask-20)">
                                <g transform="translate(67.000000, 10.000000)" id="Group">
                                    <g>
                                        <g id="Short-Hair" transform="translate(3.000000, 0.000000)" fill="#28354B">
                                            <path d="M112.679824,28.9488198 C118.086072,23.9985622 119.387393,13.9615454 116.317704,7.44932459 C112.549263,-0.546146879 104.901319,-1.54782263 97.572342,1.9686703 C90.664469,5.28356609 84.515175,6.38786709 76.950196,4.78173189 C69.691624,3.2406923 62.805566,0.522617199 55.303388,0.0762470999 C42.978028,-0.657075169 31.003367,3.91456499 22.6031232,13.1292512 C21.0003538,14.8871655 19.7089493,16.8971594 18.4882796,18.9343872 C17.5115454,20.5644351 16.4105298,22.3133822 15.9950459,24.1921885 C15.7973853,25.0855929 16.165272,27.2898774 15.7203704,28.0218712 C15.2391099,28.8123183 13.4244668,29.5373375 12.6510124,30.1238625 C11.0842713,31.3125222 9.7267597,32.6539573 8.4713836,34.1710842 C5.8052796,37.3926541 4.3376994,40.7577 3.1034777,44.7428151 C-0.9994667,57.9877848 -1.3471906,73.7412615 3.9569218,86.7467723 C4.6639385,88.4811061 6.8550622,92.0985639 8.1431613,88.3847911 C8.3976741,87.6508046 7.8086588,85.1907872 7.8099809,84.4501583 C7.8146084,81.7300905 9.3160587,63.7213567 15.857084,53.6330195 C17.9862338,50.3491947 27.8298903,38.0522456 29.840541,37.9536058 C30.9058,39.6464244 41.720532,50.4624528 69.783385,49.1948918 C82.445253,48.6229724 92.18265,42.934118 94.520833,40.4680908 C95.549375,46.000888 107.51323,54.2839964 109.33625,57.6921975 C114.602529,67.5376947 115.770677,87.9957203 117.780988,87.9573367 C119.791299,87.9189531 121.234429,82.7197797 121.647929,81.7270712 C124.719601,74.3516689 125.242509,65.0948337 124.914948,57.1684433 C124.487565,46.9663625 120.276535,35.9419513 112.679824,28.9488198 Z" id="react-path-223"></path>
                                        </g>
                                        <g id="Skin/ðŸ‘¶ðŸ½-03-Brown-Clipped" transform="translate(3.000000, 0.000000)">
                                            <mask id="mask-22" fill="white">
                                                <use xlink:href="#path-21"></use>
                                            </mask>
                                            <g id="react-path-223"></g>
                                            <g id="Skin/ðŸ‘¶ðŸ½-03-Brown" mask="url(#mask-22)">
                                                <g transform="translate(-71.000000, -10.000000)" id="Color">
                                                    <g>
                                                        <rect id="Rectangle-path" fill="#2C1B18" fill-rule="nonzero" x="0" y="0" width="264" height="280"></rect>
                                                    </g>
                                                </g>
                                            </g>
                                        </g>
                                        <g id="Top/_Resources/Prescription-02" transform="translate(0.000000, 82.000000)" fill="#252C2F" fill-rule="nonzero">
                                            <g id="Wayfarers">
                                                <path d="M34,41 L31.2421498,41 C17.3147125,41 9,33.3359286 9,20.5 C9,10.127 10.8170058,0 32.5299306,0 L35.4700694,0 C57.1829942,0 59,10.127 59,20.5 C59,32.5686429 48.7212748,41 34,41 Z M32.3853606,6 C13,6 13,12.8410159 13,21.5015498 C13,28.5719428 16.116254,37 30.9709365,37 L34,37 C46.3649085,37 55,30.6270373 55,21.5015498 C55,12.8410159 55,6 35.6146394,6 L32.3853606,6 Z" id="Left"></path>
                                                <path d="M96,41 L93.2421498,41 C79.3147125,41 71,33.3359286 71,20.5 C71,10.127 72.8170058,0 94.5299306,0 L97.4700694,0 C119.182994,0 121,10.127 121,20.5 C121,32.5686429 110.721275,41 96,41 Z M94.3853606,6 C75,6 75,12.8410159 75,21.5015498 C75,28.5719428 78.1194833,37 92.9709365,37 L96,37 C108.364909,37 117,30.6270373 117,21.5015498 C117,12.8410159 117,6 97.6146394,6 L94.3853606,6 Z" id="Right"></path>
                                                <path d="M2.95454545,5.77156439 C3.64590909,5.09629136 11.2095455,0 32.5,0 C50.3513636,0 54.1302273,1.85267217 59.8502273,4.6518809 L60.2689233,4.85850899 C60.6666014,4.99901896 62.7002447,5.68982981 65.0790606,5.76579519 C67.2462948,5.67278567 69.1000195,5.08540191 69.641698,4.89719767 C76.1703915,1.7220864 82.5610971,0 97.5,0 C118.790455,0 126.354091,5.09629136 127.045455,5.77156439 C128.679318,5.77156439 130,7.06150903 130,8.65734658 L130,11.5431288 C130,13.1389663 128.679318,14.428911 127.045455,14.428911 C127.045455,14.428911 120.143997,14.428911 120.143997,17.3146932 C120.143997,20.2004754 118.181818,13.1389663 118.181818,11.5431288 L118.181818,8.7324025 C114.578575,7.3534015 108.128411,4.78617535 97.5,4.78617535 C85.6584651,4.78617535 79.7610984,6.88602812 74.7022935,8.97112367 L74.7588636,9.1075286 L74.7563667,11.0937608 L72.5391666,16.4436339 L69.8004908,15.3608351 C69.5558969,15.2641292 69.0281396,15.090392 68.2963505,14.9099044 C66.256272,14.4067419 64.1589087,14.253569 62.3040836,14.6343084 C61.6235903,14.7739931 60.9922286,14.9836085 60.4128127,15.266732 L57.7704824,16.5578701 L55.1266751,11.3962031 L55.2440909,9.10175704 L55.3248203,8.90683854 C50.9620526,6.87386373 46.9392639,4.78617535 32.5,4.78617535 C21.8721459,4.78617535 15.422131,7.35243969 11.8181818,8.73146709 L11.8181818,11.5431288 C11.8181818,13.1389663 8.86363636,20.2004754 8.86363636,17.3146932 C8.86363636,14.428911 2.95454545,14.428911 2.95454545,14.428911 C1.32363636,14.428911 0,13.1389663 0,11.5431288 L0,8.65734658 C0,7.06150903 1.32363636,5.77156439 2.95454545,5.77156439 Z" id="Stuff"></path>
                                            </g>
                                        </g>
                                    </g>
                                </g>
                            </g>
                        </g>
                    </g>
                </g>
            </g>
        </g>
    </g>
</svg>